HIERARCHY
ROOT Hips
{
	OFFSET -0.001795 -0.223333 0.028219
	CHANNELS 6 Xposition Yposition Zposition Zrotation Yrotation Xrotation 
	JOINT LeftUpLeg
	{
		OFFSET 0.069520 -0.091406 -0.006815
		CHANNELS 3 Zrotation Yrotation Xrotation
		JOINT LeftLeg
		{
			OFFSET 0.034277 -0.375199 -0.004496
			CHANNELS 3 Zrotation Yrotation Xrotation
			JOINT LeftFoot
			{
				OFFSET -0.013596 -0.397961 -0.043693
				CHANNELS 3 Zrotation Yrotation Xrotation
				JOINT LeftToe
				{
					OFFSET 0.026358 -0.055791 0.119288
					CHANNELS 3 Zrotation Yrotation Xrotation
					End Site
					{
						OFFSET 0.000000 0.000000 0.000000
					}
				}
			}
		}
	}
	JOINT RightUpLeg
	{
		OFFSET -0.067670 -0.090522 -0.004320
		CHANNELS 3 Zrotation Yrotation Xrotation
		JOINT RightLeg
		{
			OFFSET -0.038290 -0.382569 -0.008850
			CHANNELS 3 Zrotation Yrotation Xrotation
			JOINT RightFoot
			{
				OFFSET 0.015774 -0.398415 -0.042312
				CHANNELS 3 Zrotation Yrotation Xrotation
				JOINT RightToe
				{
					OFFSET -0.025372 -0.048144 0.123348
					CHANNELS 3 Zrotation Yrotation Xrotation
					End Site
					{
						OFFSET 0.000000 0.000000 0.000000
					}
				}
			}
		}
	}
	JOINT Spine
	{
		OFFSET -0.002533 0.108963 -0.026696
		CHANNELS 3 Zrotation Yrotation Xrotation
		JOINT Spine1
		{
			OFFSET 0.005487 0.135180 0.001092
			CHANNELS 3 Zrotation Yrotation Xrotation
			JOINT Spine2
			{
				OFFSET 0.001457 0.052922 0.025425
				CHANNELS 3 Zrotation Yrotation Xrotation
				JOINT Neck
				{
					OFFSET -0.002778 0.213870 -0.042857
					CHANNELS 3 Zrotation Yrotation Xrotation
					JOINT Head
					{
						OFFSET 0.005152 0.064970 0.051349
						CHANNELS 3 Zrotation Yrotation Xrotation
						End Site
						{
							OFFSET 0.000000 0.000000 0.000000
						}
					}
				}
				JOINT LeftShoulder
				{
					OFFSET 0.078845 0.121749 -0.034090
					CHANNELS 3 Zrotation Yrotation Xrotation
					JOINT LeftArm
					{
						OFFSET 0.090977 0.030469 -0.008868
						CHANNELS 3 Zrotation Yrotation Xrotation
						JOINT LeftForeArm
						{
							OFFSET 0.259612 -0.012772 -0.027456
							CHANNELS 3 Zrotation Yrotation Xrotation
							JOINT LeftHand
							{
								OFFSET 0.249234 0.008986 -0.001171
								CHANNELS 3 Zrotation Yrotation Xrotation
								End Site
								{
									OFFSET 0.000000 0.000000 0.000000
								}
							}
						}
					}
				}
				JOINT RightShoulder
				{
					OFFSET -0.081759 0.118833 -0.038615
					CHANNELS 3 Zrotation Yrotation Xrotation
					JOINT RightArm
					{
						OFFSET -0.096012 0.032551 -0.009143
						CHANNELS 3 Zrotation Yrotation Xrotation
						JOINT RightForeArm
						{
							OFFSET -0.253742 -0.013329 -0.021401
							CHANNELS 3 Zrotation Yrotation Xrotation
							JOINT RightHand
							{
								OFFSET -0.255298 0.007772 -0.005559
								CHANNELS 3 Zrotation Yrotation Xrotation
								End Site
								{
									OFFSET 0.000000 0.000000 0.000000
								}
							}
						}
					}
				}
			}
		}
	}
}
MOTION
Frames: 7
Frame Time: 0.050000
0.000000 0.943909 0.000000 0.723733 14.030934 3.185756 0.524302 0.089363 1.501745 -4.773849 0.289591 -4.887636 -4.751785 -19.891777 -8.763434 0.000000 0.000000 0.000000 -2.600751 0.238336 -2.879347 1.121922 -0.154548 -0.006746 -3.817090 -10.361305 9.132489 0.000000 0.000000 0.000000 1.253921 0.051466 -1.684743 1.970026 -0.967999 0.077900 -2.942264 -0.364781 7.359645 4.009282 -0.478568 -16.440943 0.000000 0.000000 0.000000 -23.865988 -10.633428 1.352929 -50.206048 -5.510128 -3.166800 0.810439 -22.288924 0.410347 0.000000 0.000000 0.000000 20.576874 6.263153 3.911003 54.630912 10.430301 -1.274529 -5.043255 21.456752 0.164671 0.000000 0.000000 0.000000 
0.001032 0.942722 0.000680 0.607243 14.187088 3.403341 0.251036 0.122605 1.752814 -4.156313 0.259330 -5.708694 -4.799584 -20.029970 -8.742771 0.000000 0.000000 0.000000 -3.129396 0.249023 -3.232250 2.211365 -0.301960 0.292915 -3.881158 -10.464894 8.800693 0.000000 0.000000 0.000000 1.728853 0.082659 -2.472565 1.843927 -0.929225 0.296863 -3.615841 -0.359907 7.631097 4.099760 -0.368299 -17.496524 0.000000 0.000000 0.000000 -23.302569 -10.513229 1.278706 -50.850812 -5.378168 -3.306486 0.362986 -23.598627 0.507064 0.000000 0.000000 0.000000 20.447444 5.555141 3.550176 55.420634 10.066477 -1.426596 -4.489319 22.570314 0.293875 0.000000 0.000000 0.000000 
0.001951 0.943024 0.001163 0.420359 12.953922 3.436521 0.370966 0.105573 1.567936 -4.353547 0.286631 -5.310348 -4.282598 -18.921807 -9.160932 0.000000 0.000000 0.000000 -3.356263 0.266854 -3.454594 2.690628 -0.361401 0.312536 -3.312129 -9.392185 8.841566 0.000000 0.000000 0.000000 1.996049 0.071674 -2.212865 1.499574 -0.612359 -1.385874 -3.262312 -1.081502 9.153591 3.105574 0.074456 -17.605014 0.000000 0.000000 0.000000 -23.046457 -9.758913 1.400321 -51.470482 -6.130790 -3.338892 0.422033 -22.110862 0.550450 0.000000 0.000000 0.000000 20.539683 6.095770 3.542990 54.689548 9.440482 -1.834505 -2.771885 24.316109 0.613671 0.000000 0.000000 0.000000 
0.002880 0.942754 0.001718 0.427663 13.128260 3.288894 -0.556780 0.183575 1.914346 -2.784204 0.242737 -5.561999 -4.213495 -19.078915 -9.397073 0.000000 0.000000 0.000000 -3.337097 0.307130 -4.075786 2.574114 -0.335283 1.862267 -3.472185 -9.674596 8.460851 0.000000 0.000000 0.000000 1.652049 0.089128 -2.562793 1.814656 -0.880134 -0.039622 -3.125893 -1.771690 8.268136 3.399133 -0.288777 -16.668642 0.000000 0.000000 0.000000 -23.428079 -10.085568 1.763733 -51.334331 -5.804306 -3.428586 0.598410 -22.137210 0.540768 0.000000 0.000000 0.000000 19.952886 6.008518 3.218350 55.657185 8.509584 -2.094596 -3.612303 25.058181 0.443071 0.000000 0.000000 0.000000 
0.003860 0.943461 0.002410 0.190369 12.515035 3.112744 -0.848385 0.216867 2.120443 -2.030979 0.226625 -5.515915 -3.928436 -18.493165 -9.645479 0.000000 0.000000 0.000000 -2.813669 0.362359 -4.530307 1.911150 -0.219291 2.874030 -3.257003 -9.272918 8.494321 0.000000 0.000000 0.000000 1.404340 0.054453 -1.739798 2.595857 -1.207181 -0.533125 -3.406316 -2.228227 8.163455 3.404413 -0.381425 -16.592042 0.000000 0.000000 0.000000 -23.566551 -9.821785 1.852061 -51.401328 -6.233997 -3.314824 -0.635195 -21.204704 0.779504 0.000000 0.000000 0.000000 19.993954 5.053323 2.458841 55.465939 8.112915 -2.223689 -2.575835 26.388677 0.665991 0.000000 0.000000 0.000000 
0.004616 0.943302 0.003713 -0.046392 11.666986 2.856047 -1.257161 0.274565 2.531053 -1.084164 0.202131 -5.566474 -3.499316 -17.699499 -10.094949 0.000000 0.000000 0.000000 -2.398686 0.467409 -5.700991 1.456073 -0.114484 5.355862 -3.018766 -8.790521 8.039271 0.000000 0.000000 0.000000 1.284265 0.039400 -1.342823 2.794335 -1.311284 -0.441110 -3.120559 -2.976958 8.320695 3.604308 -0.538816 -17.490384 0.000000 0.000000 0.000000 -23.483543 -9.847389 2.319813 -51.780278 -7.062815 -3.134608 -1.094986 -21.071860 0.910435 0.000000 0.000000 0.000000 19.526484 5.189113 2.185427 56.578394 8.228998 -2.132993 -3.186117 26.214167 0.482050 0.000000 0.000000 0.000000 
0.005067 0.943083 0.005494 -0.249397 10.664383 2.696226 -1.066386 0.286708 2.792672 -1.256152 0.211985 -5.447336 -3.087081 -16.803804 -10.475474 0.000000 0.000000 0.000000 -2.100322 0.629459 -7.678324 1.174192 -0.025851 9.107082 -2.740626 -8.228731 7.647757 0.000000 0.000000 0.000000 0.943633 0.010924 -0.612376 3.009332 -1.389261 -0.700877 -3.142581 -3.625948 8.260465 3.860370 -0.785300 -17.814928 0.000000 0.000000 0.000000 -23.005467 -9.193518 2.354904 -52.037882 -7.447471 -3.104700 -1.856661 -21.886688 1.133424 0.000000 0.000000 0.000000 19.579500 4.803737 1.641388 57.070503 7.357180 -2.496561 -1.845025 26.611308 0.714593 0.000000 0.000000 0.000000 
